<svg width="18" height="14" viewBox="0 0 18 14" fill="none" xmlns="http://www.w3.org/2000/svg">
<path d="M16.7778 0.333252H1.2222C0.92751 0.333252 0.644895 0.450315 0.436521 0.658689C0.228147 0.867063 0.111084 1.14968 0.111084 1.44436V12.5555C0.111084 12.8502 0.228147 13.1328 0.436521 13.3411C0.644895 13.5495 0.92751 13.6666 1.2222 13.6666H16.7778C17.0724 13.6666 17.3551 13.5495 17.5634 13.3411C17.7718 13.1328 17.8889 12.8502 17.8889 12.5555V1.44436C17.8889 1.14968 17.7718 0.867063 17.5634 0.658689C17.3551 0.450315 17.0724 0.333252 16.7778 0.333252ZM15.9222 12.5555H2.14442L6.03331 8.53325L5.23331 7.76103L1.2222 11.911V2.28881L8.12775 9.16103C8.33593 9.36797 8.61755 9.48413 8.91108 9.48413C9.20462 9.48413 9.48624 9.36797 9.69442 9.16103L16.7778 2.11659V11.8388L12.6889 7.74992L11.9055 8.53325L15.9222 12.5555ZM1.94997 1.44436H15.8778L8.91108 8.37214L1.94997 1.44436Z" fill="#454545"/>
</svg>
