<svg width="24" height="24" viewBox="0 0 24 24" fill="none" xmlns="http://www.w3.org/2000/svg">
<path d="M7.05605 2.41781L8.22305 2.06681C8.86234 1.87403 9.54993 1.92044 10.1575 2.19737C10.7651 2.4743 11.2512 2.96283 11.525 3.57181L12.427 5.57781C12.6625 6.10161 12.7281 6.68599 12.6146 7.24895C12.501 7.81191 12.2141 8.3252 11.794 8.71681L10.3 10.1098C10.2564 10.1505 10.2287 10.2055 10.222 10.2648C10.178 10.6618 10.447 11.4348 11.067 12.5098C11.518 13.2908 11.927 13.8398 12.274 14.1468C12.516 14.3618 12.649 14.4078 12.706 14.3918L14.716 13.7768C15.265 13.6089 15.8527 13.617 16.3967 13.7999C16.9408 13.9828 17.414 14.3314 17.75 14.7968L19.031 16.5728C19.4206 17.1129 19.6009 17.776 19.5386 18.439C19.4763 19.102 19.1755 19.7198 18.692 20.1778L17.806 21.0178C17.3358 21.4631 16.7583 21.7791 16.1297 21.9348C15.5011 22.0906 14.8428 22.081 14.219 21.9068C11.465 21.1378 8.99605 18.8138 6.78405 14.9828C4.56905 11.1468 3.79205 7.84281 4.50805 5.06981C4.66922 4.44615 4.98834 3.87451 5.43462 3.41001C5.88091 2.94551 6.43933 2.60379 7.05605 2.41781ZM7.48905 3.85481C7.11912 3.96626 6.78413 4.1711 6.51633 4.44958C6.24853 4.72806 6.05695 5.07081 5.96005 5.44481C5.35805 7.77681 6.04705 10.7058 8.08305 14.2328C10.116 17.7548 12.305 19.8148 14.623 20.4628C14.9972 20.567 15.3919 20.5726 15.7689 20.479C16.1458 20.3854 16.4921 20.1959 16.774 19.9288L17.661 19.0888C17.8809 18.8806 18.0176 18.5997 18.046 18.2982C18.0743 17.9968 17.9922 17.6953 17.8151 17.4498L16.535 15.6748C16.3823 15.463 16.1671 15.3044 15.9196 15.2212C15.6721 15.1379 15.4047 15.1343 15.155 15.2108L13.14 15.8278C11.97 16.1758 10.908 15.2348 9.76805 13.2598C9.00005 11.9298 8.64205 10.8998 8.73105 10.0988C8.77805 9.68281 8.97105 9.29881 9.27705 9.01281L10.771 7.61981C10.9621 7.44182 11.0926 7.20849 11.1442 6.95256C11.1959 6.69663 11.1661 6.43095 11.059 6.19281L10.157 4.18681C10.0326 3.91022 9.81177 3.68832 9.53579 3.56248C9.25982 3.43663 8.9475 3.41543 8.65705 3.50281L7.48905 3.85481Z" fill="#454545"/>
</svg>
